<mxfile host="app.diagrams.net" agent="Mozilla/5.0 (Windows NT 10.0; Win64; x64) AppleWebKit/537.36 (KHTML, like Gecko) Chrome/129.0.0.0 Safari/537.36" version="24.7.17">
  <diagram name="lab3" id="3kD_d16pzbdY3uMt4Bob">
    <mxGraphModel dx="1909" dy="1347" grid="0" gridSize="10" guides="1" tooltips="1" connect="1" arrows="1" fold="1" page="0" pageScale="1" pageWidth="1169" pageHeight="1654" background="none" math="0" shadow="0">
      <root>
        <mxCell id="0" />
        <mxCell id="1" parent="0" />
        <mxCell id="xYjexHYlSiZpcQ8cjG75-2" value="Пользователь" style="html=1;whiteSpace=wrap;" parent="1" vertex="1">
          <mxGeometry x="-139" y="568" width="180" height="90" as="geometry" />
        </mxCell>
        <mxCell id="xYjexHYlSiZpcQ8cjG75-3" value="" style="endArrow=none;html=1;rounded=0;" parent="1" edge="1">
          <mxGeometry width="50" height="50" relative="1" as="geometry">
            <mxPoint x="-139" y="578" as="sourcePoint" />
            <mxPoint x="-129" y="568" as="targetPoint" />
          </mxGeometry>
        </mxCell>
        <mxCell id="xYjexHYlSiZpcQ8cjG75-4" value="" style="endArrow=none;html=1;rounded=0;entryX=0.862;entryY=0.108;entryDx=0;entryDy=0;entryPerimeter=0;" parent="1" edge="1">
          <mxGeometry width="50" height="50" relative="1" as="geometry">
            <mxPoint x="-139" y="640" as="sourcePoint" />
            <mxPoint x="41.48000000000002" y="640.1600000000001" as="targetPoint" />
          </mxGeometry>
        </mxCell>
        <mxCell id="xYjexHYlSiZpcQ8cjG75-5" value="&lt;div&gt;Выбрать книгу на странице,&amp;nbsp;&lt;span style=&quot;background-color: initial;&quot;&gt;доступная для чтения или скачивания&lt;/span&gt;&lt;/div&gt;" style="html=1;whiteSpace=wrap;" parent="1" vertex="1">
          <mxGeometry x="97" y="706" width="180" height="90" as="geometry" />
        </mxCell>
        <mxCell id="xYjexHYlSiZpcQ8cjG75-6" value="" style="endArrow=none;html=1;rounded=0;" parent="1" edge="1">
          <mxGeometry width="50" height="50" relative="1" as="geometry">
            <mxPoint x="97" y="716" as="sourcePoint" />
            <mxPoint x="107" y="706" as="targetPoint" />
          </mxGeometry>
        </mxCell>
        <mxCell id="xYjexHYlSiZpcQ8cjG75-7" value="&lt;font style=&quot;font-size: 11px;&quot;&gt;А3.1.2&lt;/font&gt;" style="text;html=1;align=center;verticalAlign=middle;whiteSpace=wrap;rounded=0;" parent="1" vertex="1">
          <mxGeometry x="117" y="776" width="40" height="20" as="geometry" />
        </mxCell>
        <mxCell id="xYjexHYlSiZpcQ8cjG75-8" value="" style="endArrow=none;html=1;rounded=0;entryX=0.862;entryY=0.108;entryDx=0;entryDy=0;entryPerimeter=0;" parent="1" target="xYjexHYlSiZpcQ8cjG75-7" edge="1">
          <mxGeometry width="50" height="50" relative="1" as="geometry">
            <mxPoint x="97" y="778" as="sourcePoint" />
            <mxPoint x="146" y="731" as="targetPoint" />
          </mxGeometry>
        </mxCell>
        <mxCell id="xYjexHYlSiZpcQ8cjG75-9" value="" style="endArrow=none;html=1;rounded=0;exitX=0.5;exitY=1;exitDx=0;exitDy=0;" parent="1" source="xYjexHYlSiZpcQ8cjG75-5" edge="1">
          <mxGeometry width="50" height="50" relative="1" as="geometry">
            <mxPoint x="150" y="831" as="sourcePoint" />
            <mxPoint x="187" y="778" as="targetPoint" />
          </mxGeometry>
        </mxCell>
        <mxCell id="xYjexHYlSiZpcQ8cjG75-21" value="" style="endArrow=classic;html=1;rounded=0;" parent="1" edge="1">
          <mxGeometry width="50" height="50" relative="1" as="geometry">
            <mxPoint x="277" y="750.6800000000001" as="sourcePoint" />
            <mxPoint x="322" y="751" as="targetPoint" />
          </mxGeometry>
        </mxCell>
        <mxCell id="xYjexHYlSiZpcQ8cjG75-29" value="" style="endArrow=none;dashed=1;html=1;rounded=0;entryX=0.524;entryY=0.999;entryDx=0;entryDy=0;entryPerimeter=0;exitX=0.524;exitY=-0.018;exitDx=0;exitDy=0;exitPerimeter=0;" parent="1" edge="1">
          <mxGeometry width="50" height="50" relative="1" as="geometry">
            <mxPoint x="-49.42999999999989" y="709" as="sourcePoint" />
            <mxPoint x="-49.42999999999989" y="656.53" as="targetPoint" />
          </mxGeometry>
        </mxCell>
        <mxCell id="xYjexHYlSiZpcQ8cjG75-31" value="" style="endArrow=none;html=1;rounded=0;exitX=0.003;exitY=0.803;exitDx=0;exitDy=0;exitPerimeter=0;entryX=0.998;entryY=0.8;entryDx=0;entryDy=0;entryPerimeter=0;" parent="1" source="xYjexHYlSiZpcQ8cjG75-5" target="xYjexHYlSiZpcQ8cjG75-5" edge="1">
          <mxGeometry width="50" height="50" relative="1" as="geometry">
            <mxPoint x="126" y="766" as="sourcePoint" />
            <mxPoint x="176" y="716" as="targetPoint" />
          </mxGeometry>
        </mxCell>
        <mxCell id="ubQBvGADmWwRAXn0CkWI-62" value="&lt;font style=&quot;font-size: 32px;&quot;&gt;3 блок&lt;/font&gt;" style="text;html=1;align=center;verticalAlign=middle;whiteSpace=wrap;rounded=0;" parent="1" vertex="1">
          <mxGeometry x="-139" y="520" width="120" height="30" as="geometry" />
        </mxCell>
        <mxCell id="krXHKrjR_23_vHWe9cLa-4" value="Пользователь" style="html=1;whiteSpace=wrap;" vertex="1" parent="1">
          <mxGeometry x="-132" y="-270" width="180" height="90" as="geometry" />
        </mxCell>
        <mxCell id="krXHKrjR_23_vHWe9cLa-5" value="" style="endArrow=none;html=1;rounded=0;" edge="1" parent="1">
          <mxGeometry width="50" height="50" relative="1" as="geometry">
            <mxPoint x="-132" y="-260" as="sourcePoint" />
            <mxPoint x="-122" y="-270" as="targetPoint" />
          </mxGeometry>
        </mxCell>
        <mxCell id="krXHKrjR_23_vHWe9cLa-6" value="" style="endArrow=none;html=1;rounded=0;entryX=0.862;entryY=0.108;entryDx=0;entryDy=0;entryPerimeter=0;" edge="1" parent="1">
          <mxGeometry width="50" height="50" relative="1" as="geometry">
            <mxPoint x="-132" y="-198" as="sourcePoint" />
            <mxPoint x="48.48000000000002" y="-197.83999999999992" as="targetPoint" />
          </mxGeometry>
        </mxCell>
        <mxCell id="krXHKrjR_23_vHWe9cLa-7" style="edgeStyle=orthogonalEdgeStyle;rounded=0;orthogonalLoop=1;jettySize=auto;html=1;" edge="1" parent="1" source="krXHKrjR_23_vHWe9cLa-8" target="krXHKrjR_23_vHWe9cLa-23">
          <mxGeometry relative="1" as="geometry" />
        </mxCell>
        <mxCell id="krXHKrjR_23_vHWe9cLa-8" value="&lt;div&gt;Зайти на страницу для поиска&lt;br&gt;книги&lt;/div&gt;" style="html=1;whiteSpace=wrap;" vertex="1" parent="1">
          <mxGeometry x="89.75" y="-127" width="180" height="90" as="geometry" />
        </mxCell>
        <mxCell id="krXHKrjR_23_vHWe9cLa-9" value="" style="endArrow=none;html=1;rounded=0;" edge="1" parent="1">
          <mxGeometry width="50" height="50" relative="1" as="geometry">
            <mxPoint x="89.75" y="-117" as="sourcePoint" />
            <mxPoint x="99.75" y="-127" as="targetPoint" />
          </mxGeometry>
        </mxCell>
        <mxCell id="krXHKrjR_23_vHWe9cLa-10" value="&lt;font style=&quot;font-size: 11px;&quot;&gt;А1.1.2&lt;/font&gt;" style="text;html=1;align=center;verticalAlign=middle;whiteSpace=wrap;rounded=0;" vertex="1" parent="1">
          <mxGeometry x="109.75" y="-57" width="40" height="20" as="geometry" />
        </mxCell>
        <mxCell id="krXHKrjR_23_vHWe9cLa-11" value="" style="endArrow=none;html=1;rounded=0;entryX=0.862;entryY=0.108;entryDx=0;entryDy=0;entryPerimeter=0;" edge="1" parent="1" target="krXHKrjR_23_vHWe9cLa-10">
          <mxGeometry width="50" height="50" relative="1" as="geometry">
            <mxPoint x="89.75" y="-55" as="sourcePoint" />
            <mxPoint x="138.75" y="-102" as="targetPoint" />
          </mxGeometry>
        </mxCell>
        <mxCell id="krXHKrjR_23_vHWe9cLa-12" value="" style="endArrow=none;html=1;rounded=0;exitX=0.5;exitY=1;exitDx=0;exitDy=0;" edge="1" parent="1" source="krXHKrjR_23_vHWe9cLa-8">
          <mxGeometry width="50" height="50" relative="1" as="geometry">
            <mxPoint x="142.75" y="-2" as="sourcePoint" />
            <mxPoint x="179.75" y="-55" as="targetPoint" />
          </mxGeometry>
        </mxCell>
        <mxCell id="krXHKrjR_23_vHWe9cLa-17" value="" style="endArrow=none;dashed=1;html=1;rounded=0;entryX=0.524;entryY=0.999;entryDx=0;entryDy=0;entryPerimeter=0;exitX=0.524;exitY=-0.018;exitDx=0;exitDy=0;exitPerimeter=0;" edge="1" parent="1">
          <mxGeometry width="50" height="50" relative="1" as="geometry">
            <mxPoint x="-42.249999999999886" y="-128.53" as="sourcePoint" />
            <mxPoint x="-42.249999999999886" y="-181.00000000000003" as="targetPoint" />
          </mxGeometry>
        </mxCell>
        <mxCell id="krXHKrjR_23_vHWe9cLa-18" value="" style="endArrow=none;html=1;rounded=0;exitX=0.003;exitY=0.803;exitDx=0;exitDy=0;exitPerimeter=0;entryX=0.998;entryY=0.8;entryDx=0;entryDy=0;entryPerimeter=0;" edge="1" parent="1" source="krXHKrjR_23_vHWe9cLa-8" target="krXHKrjR_23_vHWe9cLa-8">
          <mxGeometry width="50" height="50" relative="1" as="geometry">
            <mxPoint x="118.75" y="-67" as="sourcePoint" />
            <mxPoint x="168.75" y="-117" as="targetPoint" />
          </mxGeometry>
        </mxCell>
        <mxCell id="krXHKrjR_23_vHWe9cLa-21" value="Доступ к электронным&amp;nbsp;&lt;br&gt;книгам&lt;div&gt;&lt;br&gt;&lt;/div&gt;" style="text;whiteSpace=wrap;html=1;align=center;" vertex="1" parent="1">
          <mxGeometry x="553.25" y="-120" width="163" height="43" as="geometry" />
        </mxCell>
        <mxCell id="krXHKrjR_23_vHWe9cLa-22" value="" style="group" connectable="0" vertex="1" parent="1">
          <mxGeometry x="382.75" y="-127" width="180.48000000000002" height="90" as="geometry" />
        </mxCell>
        <mxCell id="krXHKrjR_23_vHWe9cLa-23" value="Внести в поисковую строку&lt;br&gt;название книги" style="html=1;whiteSpace=wrap;" vertex="1" parent="krXHKrjR_23_vHWe9cLa-22">
          <mxGeometry width="180" height="90" as="geometry" />
        </mxCell>
        <mxCell id="krXHKrjR_23_vHWe9cLa-24" value="" style="endArrow=none;html=1;rounded=0;" edge="1" parent="krXHKrjR_23_vHWe9cLa-22">
          <mxGeometry width="50" height="50" relative="1" as="geometry">
            <mxPoint y="10" as="sourcePoint" />
            <mxPoint x="10" as="targetPoint" />
          </mxGeometry>
        </mxCell>
        <mxCell id="krXHKrjR_23_vHWe9cLa-25" value="" style="endArrow=none;html=1;rounded=0;entryX=0.862;entryY=0.108;entryDx=0;entryDy=0;entryPerimeter=0;" edge="1" parent="krXHKrjR_23_vHWe9cLa-22">
          <mxGeometry width="50" height="50" relative="1" as="geometry">
            <mxPoint y="72" as="sourcePoint" />
            <mxPoint x="180.48000000000002" y="72.15999999999985" as="targetPoint" />
          </mxGeometry>
        </mxCell>
        <mxCell id="krXHKrjR_23_vHWe9cLa-26" value="" style="endArrow=none;html=1;rounded=0;exitX=0.5;exitY=1;exitDx=0;exitDy=0;" edge="1" parent="krXHKrjR_23_vHWe9cLa-22" source="krXHKrjR_23_vHWe9cLa-23">
          <mxGeometry width="50" height="50" relative="1" as="geometry">
            <mxPoint x="53" y="125" as="sourcePoint" />
            <mxPoint x="90" y="72" as="targetPoint" />
          </mxGeometry>
        </mxCell>
        <mxCell id="krXHKrjR_23_vHWe9cLa-27" value="&lt;font style=&quot;font-size: 11px;&quot;&gt;А1.1.3&lt;/font&gt;" style="text;html=1;align=center;verticalAlign=middle;whiteSpace=wrap;rounded=0;" vertex="1" parent="krXHKrjR_23_vHWe9cLa-22">
          <mxGeometry x="13" y="70" width="40" height="20" as="geometry" />
        </mxCell>
        <mxCell id="krXHKrjR_23_vHWe9cLa-28" value="&lt;font style=&quot;font-size: 32px;&quot;&gt;1 блок&lt;/font&gt;" style="text;html=1;align=center;verticalAlign=middle;whiteSpace=wrap;rounded=0;" vertex="1" parent="1">
          <mxGeometry x="-132" y="-308" width="120" height="30" as="geometry" />
        </mxCell>
        <mxCell id="krXHKrjR_23_vHWe9cLa-29" style="edgeStyle=orthogonalEdgeStyle;rounded=0;orthogonalLoop=1;jettySize=auto;html=1;" edge="1" parent="1" source="krXHKrjR_23_vHWe9cLa-23">
          <mxGeometry relative="1" as="geometry">
            <Array as="points">
              <mxPoint x="651.75" y="-82" />
              <mxPoint x="651.75" y="-82" />
            </Array>
            <mxPoint x="679.75" y="-81.99999999999977" as="targetPoint" />
          </mxGeometry>
        </mxCell>
        <mxCell id="krXHKrjR_23_vHWe9cLa-32" value="Пользователь" style="html=1;whiteSpace=wrap;" vertex="1" parent="1">
          <mxGeometry x="-132.48" y="209" width="180" height="90" as="geometry" />
        </mxCell>
        <mxCell id="krXHKrjR_23_vHWe9cLa-33" value="" style="endArrow=none;html=1;rounded=0;" edge="1" parent="1">
          <mxGeometry width="50" height="50" relative="1" as="geometry">
            <mxPoint x="-132.48" y="219" as="sourcePoint" />
            <mxPoint x="-122.47999999999999" y="209" as="targetPoint" />
          </mxGeometry>
        </mxCell>
        <mxCell id="krXHKrjR_23_vHWe9cLa-34" value="" style="endArrow=none;html=1;rounded=0;entryX=0.862;entryY=0.108;entryDx=0;entryDy=0;entryPerimeter=0;" edge="1" parent="1">
          <mxGeometry width="50" height="50" relative="1" as="geometry">
            <mxPoint x="-132.48" y="281" as="sourcePoint" />
            <mxPoint x="48.00000000000003" y="281.1600000000001" as="targetPoint" />
          </mxGeometry>
        </mxCell>
        <mxCell id="krXHKrjR_23_vHWe9cLa-35" style="edgeStyle=orthogonalEdgeStyle;rounded=0;orthogonalLoop=1;jettySize=auto;html=1;" edge="1" parent="1" source="krXHKrjR_23_vHWe9cLa-36">
          <mxGeometry relative="1" as="geometry">
            <mxPoint x="381" y="392" as="targetPoint" />
          </mxGeometry>
        </mxCell>
        <mxCell id="krXHKrjR_23_vHWe9cLa-36" value="Выбрать книгу на странице" style="html=1;whiteSpace=wrap;" vertex="1" parent="1">
          <mxGeometry x="88" y="347" width="180" height="90" as="geometry" />
        </mxCell>
        <mxCell id="krXHKrjR_23_vHWe9cLa-37" value="" style="endArrow=none;html=1;rounded=0;" edge="1" parent="1">
          <mxGeometry width="50" height="50" relative="1" as="geometry">
            <mxPoint x="88" y="357" as="sourcePoint" />
            <mxPoint x="98" y="347" as="targetPoint" />
          </mxGeometry>
        </mxCell>
        <mxCell id="krXHKrjR_23_vHWe9cLa-38" value="&lt;font style=&quot;font-size: 11px;&quot;&gt;А2.1.2&lt;/font&gt;" style="text;html=1;align=center;verticalAlign=middle;whiteSpace=wrap;rounded=0;" vertex="1" parent="1">
          <mxGeometry x="108" y="417" width="40" height="20" as="geometry" />
        </mxCell>
        <mxCell id="krXHKrjR_23_vHWe9cLa-39" value="" style="endArrow=none;html=1;rounded=0;entryX=0.862;entryY=0.108;entryDx=0;entryDy=0;entryPerimeter=0;" edge="1" parent="1" target="krXHKrjR_23_vHWe9cLa-38">
          <mxGeometry width="50" height="50" relative="1" as="geometry">
            <mxPoint x="88" y="419" as="sourcePoint" />
            <mxPoint x="137" y="372" as="targetPoint" />
          </mxGeometry>
        </mxCell>
        <mxCell id="krXHKrjR_23_vHWe9cLa-40" value="" style="endArrow=none;html=1;rounded=0;exitX=0.5;exitY=1;exitDx=0;exitDy=0;" edge="1" parent="1" source="krXHKrjR_23_vHWe9cLa-36">
          <mxGeometry width="50" height="50" relative="1" as="geometry">
            <mxPoint x="141" y="472" as="sourcePoint" />
            <mxPoint x="178" y="419" as="targetPoint" />
          </mxGeometry>
        </mxCell>
        <mxCell id="krXHKrjR_23_vHWe9cLa-41" value="" style="endArrow=none;dashed=1;html=1;rounded=0;entryX=0.524;entryY=0.999;entryDx=0;entryDy=0;entryPerimeter=0;exitX=0.524;exitY=-0.018;exitDx=0;exitDy=0;exitPerimeter=0;" edge="1" parent="1">
          <mxGeometry width="50" height="50" relative="1" as="geometry">
            <mxPoint x="-42.28999999999988" y="352.47" as="sourcePoint" />
            <mxPoint x="-42.28999999999988" y="300" as="targetPoint" />
          </mxGeometry>
        </mxCell>
        <mxCell id="krXHKrjR_23_vHWe9cLa-42" value="" style="endArrow=none;html=1;rounded=0;exitX=0.003;exitY=0.803;exitDx=0;exitDy=0;exitPerimeter=0;entryX=0.998;entryY=0.8;entryDx=0;entryDy=0;entryPerimeter=0;" edge="1" parent="1" source="krXHKrjR_23_vHWe9cLa-36" target="krXHKrjR_23_vHWe9cLa-36">
          <mxGeometry width="50" height="50" relative="1" as="geometry">
            <mxPoint x="117" y="407" as="sourcePoint" />
            <mxPoint x="167" y="357" as="targetPoint" />
          </mxGeometry>
        </mxCell>
        <mxCell id="krXHKrjR_23_vHWe9cLa-50" value="&lt;font style=&quot;font-size: 32px;&quot;&gt;2 блок&lt;/font&gt;" style="text;html=1;align=center;verticalAlign=middle;whiteSpace=wrap;rounded=0;" vertex="1" parent="1">
          <mxGeometry x="-132.48" y="167" width="120" height="30" as="geometry" />
        </mxCell>
        <mxCell id="krXHKrjR_23_vHWe9cLa-76" value="&lt;div&gt;Найденная книга, доступная для чтения или скачивания&lt;/div&gt;" style="text;whiteSpace=wrap;html=1;align=center;" vertex="1" parent="1">
          <mxGeometry x="271" y="349" width="189" height="50" as="geometry" />
        </mxCell>
        <mxCell id="krXHKrjR_23_vHWe9cLa-109" value="" style="endArrow=classic;html=1;rounded=0;entryX=0;entryY=0.5;entryDx=0;entryDy=0;edgeStyle=orthogonalEdgeStyle;" edge="1" parent="1" target="krXHKrjR_23_vHWe9cLa-128">
          <mxGeometry width="50" height="50" relative="1" as="geometry">
            <mxPoint x="348" y="729" as="sourcePoint" />
            <mxPoint x="393" y="636" as="targetPoint" />
            <Array as="points">
              <mxPoint x="348" y="635" />
            </Array>
          </mxGeometry>
        </mxCell>
        <mxCell id="krXHKrjR_23_vHWe9cLa-110" value="" style="endArrow=classic;html=1;rounded=0;exitX=0.25;exitY=1;exitDx=0;exitDy=0;entryX=0;entryY=0.5;entryDx=0;entryDy=0;edgeStyle=orthogonalEdgeStyle;" edge="1" parent="1" target="krXHKrjR_23_vHWe9cLa-122">
          <mxGeometry width="50" height="50" relative="1" as="geometry">
            <mxPoint x="349.5" y="773.5" as="sourcePoint" />
            <mxPoint x="395" y="850" as="targetPoint" />
            <Array as="points">
              <mxPoint x="348" y="774" />
              <mxPoint x="348" y="855" />
            </Array>
          </mxGeometry>
        </mxCell>
        <mxCell id="krXHKrjR_23_vHWe9cLa-111" value="" style="endArrow=classic;html=1;rounded=0;entryX=0.5;entryY=0;entryDx=0;entryDy=0;edgeStyle=orthogonalEdgeStyle;exitX=1.001;exitY=0.518;exitDx=0;exitDy=0;exitPerimeter=0;" edge="1" parent="1" source="krXHKrjR_23_vHWe9cLa-128">
          <mxGeometry width="50" height="50" relative="1" as="geometry">
            <mxPoint x="578.0000000000005" y="636.99" as="sourcePoint" />
            <mxPoint x="612" y="731.99" as="targetPoint" />
            <Array as="points">
              <mxPoint x="574" y="635" />
              <mxPoint x="612" y="635" />
            </Array>
          </mxGeometry>
        </mxCell>
        <mxCell id="krXHKrjR_23_vHWe9cLa-112" value="" style="endArrow=classic;html=1;rounded=0;entryX=0.451;entryY=1.015;entryDx=0;entryDy=0;edgeStyle=orthogonalEdgeStyle;entryPerimeter=0;exitX=1;exitY=0.5;exitDx=0;exitDy=0;" edge="1" parent="1" source="krXHKrjR_23_vHWe9cLa-122">
          <mxGeometry width="50" height="50" relative="1" as="geometry">
            <mxPoint x="580" y="849" as="sourcePoint" />
            <mxPoint x="611.3539999999998" y="776" as="targetPoint" />
            <Array as="points">
              <mxPoint x="611" y="855" />
            </Array>
          </mxGeometry>
        </mxCell>
        <mxCell id="krXHKrjR_23_vHWe9cLa-113" value="&lt;b&gt;J1&lt;/b&gt;" style="text;html=1;align=center;verticalAlign=middle;whiteSpace=wrap;rounded=0;" vertex="1" parent="1">
          <mxGeometry x="379" y="756" width="33" height="26" as="geometry" />
        </mxCell>
        <mxCell id="krXHKrjR_23_vHWe9cLa-114" style="edgeStyle=orthogonalEdgeStyle;rounded=0;orthogonalLoop=1;jettySize=auto;html=1;exitX=1;exitY=0.5;exitDx=0;exitDy=0;entryX=0;entryY=0.5;entryDx=0;entryDy=0;" edge="1" parent="1" source="krXHKrjR_23_vHWe9cLa-115" target="krXHKrjR_23_vHWe9cLa-118">
          <mxGeometry relative="1" as="geometry" />
        </mxCell>
        <mxCell id="krXHKrjR_23_vHWe9cLa-115" value="" style="rounded=0;whiteSpace=wrap;html=1;" vertex="1" parent="1">
          <mxGeometry x="324" y="730" width="54" height="44" as="geometry" />
        </mxCell>
        <mxCell id="krXHKrjR_23_vHWe9cLa-116" value="&lt;b&gt;O&lt;/b&gt;" style="text;html=1;align=center;verticalAlign=middle;whiteSpace=wrap;rounded=0;" vertex="1" parent="1">
          <mxGeometry x="331" y="737.5" width="40" height="29" as="geometry" />
        </mxCell>
        <mxCell id="krXHKrjR_23_vHWe9cLa-117" value="" style="endArrow=none;html=1;rounded=0;entryX=0.25;entryY=0;entryDx=0;entryDy=0;exitX=0.25;exitY=1;exitDx=0;exitDy=0;" edge="1" parent="1">
          <mxGeometry width="50" height="50" relative="1" as="geometry">
            <mxPoint x="333.5" y="774" as="sourcePoint" />
            <mxPoint x="333.5" y="730" as="targetPoint" />
          </mxGeometry>
        </mxCell>
        <mxCell id="krXHKrjR_23_vHWe9cLa-118" value="" style="rounded=0;whiteSpace=wrap;html=1;" vertex="1" parent="1">
          <mxGeometry x="583" y="730" width="54" height="44" as="geometry" />
        </mxCell>
        <mxCell id="krXHKrjR_23_vHWe9cLa-135" style="edgeStyle=orthogonalEdgeStyle;rounded=0;orthogonalLoop=1;jettySize=auto;html=1;exitX=0.981;exitY=0.523;exitDx=0;exitDy=0;exitPerimeter=0;" edge="1" parent="1" source="krXHKrjR_23_vHWe9cLa-118">
          <mxGeometry relative="1" as="geometry">
            <mxPoint x="769.75" y="751.9999999999995" as="targetPoint" />
            <mxPoint x="639" y="752" as="sourcePoint" />
          </mxGeometry>
        </mxCell>
        <mxCell id="krXHKrjR_23_vHWe9cLa-119" value="&lt;b&gt;O&lt;/b&gt;" style="text;html=1;align=center;verticalAlign=middle;whiteSpace=wrap;rounded=0;" vertex="1" parent="1">
          <mxGeometry x="590" y="737.5" width="40" height="29" as="geometry" />
        </mxCell>
        <mxCell id="krXHKrjR_23_vHWe9cLa-120" value="" style="endArrow=none;html=1;rounded=0;entryX=0.25;entryY=0;entryDx=0;entryDy=0;exitX=0.25;exitY=1;exitDx=0;exitDy=0;" edge="1" parent="1">
          <mxGeometry width="50" height="50" relative="1" as="geometry">
            <mxPoint x="592.5" y="774" as="sourcePoint" />
            <mxPoint x="592.5" y="730" as="targetPoint" />
          </mxGeometry>
        </mxCell>
        <mxCell id="krXHKrjR_23_vHWe9cLa-121" value="" style="group" connectable="0" vertex="1" parent="1">
          <mxGeometry x="394" y="810" width="180.48000000000002" height="90" as="geometry" />
        </mxCell>
        <mxCell id="krXHKrjR_23_vHWe9cLa-122" value="&lt;div&gt;Скачать книгу&lt;/div&gt;" style="html=1;whiteSpace=wrap;" vertex="1" parent="krXHKrjR_23_vHWe9cLa-121">
          <mxGeometry width="180" height="90" as="geometry" />
        </mxCell>
        <mxCell id="krXHKrjR_23_vHWe9cLa-123" value="" style="endArrow=none;html=1;rounded=0;" edge="1" parent="krXHKrjR_23_vHWe9cLa-121">
          <mxGeometry width="50" height="50" relative="1" as="geometry">
            <mxPoint y="10" as="sourcePoint" />
            <mxPoint x="10" as="targetPoint" />
          </mxGeometry>
        </mxCell>
        <mxCell id="krXHKrjR_23_vHWe9cLa-124" value="" style="endArrow=none;html=1;rounded=0;entryX=0.862;entryY=0.108;entryDx=0;entryDy=0;entryPerimeter=0;" edge="1" parent="krXHKrjR_23_vHWe9cLa-121">
          <mxGeometry width="50" height="50" relative="1" as="geometry">
            <mxPoint y="72" as="sourcePoint" />
            <mxPoint x="180.48000000000002" y="72.15999999999985" as="targetPoint" />
          </mxGeometry>
        </mxCell>
        <mxCell id="krXHKrjR_23_vHWe9cLa-125" value="" style="endArrow=none;html=1;rounded=0;exitX=0.5;exitY=1;exitDx=0;exitDy=0;" edge="1" parent="krXHKrjR_23_vHWe9cLa-121" source="krXHKrjR_23_vHWe9cLa-122">
          <mxGeometry width="50" height="50" relative="1" as="geometry">
            <mxPoint x="53" y="125" as="sourcePoint" />
            <mxPoint x="90" y="72" as="targetPoint" />
          </mxGeometry>
        </mxCell>
        <mxCell id="krXHKrjR_23_vHWe9cLa-126" value="&lt;font style=&quot;font-size: 11px;&quot;&gt;А3.1.4&lt;/font&gt;" style="text;html=1;align=center;verticalAlign=middle;whiteSpace=wrap;rounded=0;" vertex="1" parent="krXHKrjR_23_vHWe9cLa-121">
          <mxGeometry x="13" y="70" width="40" height="20" as="geometry" />
        </mxCell>
        <mxCell id="krXHKrjR_23_vHWe9cLa-127" value="" style="group" connectable="0" vertex="1" parent="1">
          <mxGeometry x="394" y="590" width="180.48000000000002" height="90" as="geometry" />
        </mxCell>
        <mxCell id="krXHKrjR_23_vHWe9cLa-128" value="Читать книгу" style="html=1;whiteSpace=wrap;" vertex="1" parent="krXHKrjR_23_vHWe9cLa-127">
          <mxGeometry width="180" height="90" as="geometry" />
        </mxCell>
        <mxCell id="krXHKrjR_23_vHWe9cLa-129" value="" style="endArrow=none;html=1;rounded=0;" edge="1" parent="krXHKrjR_23_vHWe9cLa-127">
          <mxGeometry width="50" height="50" relative="1" as="geometry">
            <mxPoint y="10" as="sourcePoint" />
            <mxPoint x="10" as="targetPoint" />
          </mxGeometry>
        </mxCell>
        <mxCell id="krXHKrjR_23_vHWe9cLa-130" value="" style="endArrow=none;html=1;rounded=0;entryX=0.862;entryY=0.108;entryDx=0;entryDy=0;entryPerimeter=0;" edge="1" parent="krXHKrjR_23_vHWe9cLa-127">
          <mxGeometry width="50" height="50" relative="1" as="geometry">
            <mxPoint y="72" as="sourcePoint" />
            <mxPoint x="180.48000000000002" y="72.15999999999985" as="targetPoint" />
          </mxGeometry>
        </mxCell>
        <mxCell id="krXHKrjR_23_vHWe9cLa-131" value="" style="endArrow=none;html=1;rounded=0;exitX=0.5;exitY=1;exitDx=0;exitDy=0;" edge="1" parent="krXHKrjR_23_vHWe9cLa-127" source="krXHKrjR_23_vHWe9cLa-128">
          <mxGeometry width="50" height="50" relative="1" as="geometry">
            <mxPoint x="53" y="125" as="sourcePoint" />
            <mxPoint x="90" y="72" as="targetPoint" />
          </mxGeometry>
        </mxCell>
        <mxCell id="krXHKrjR_23_vHWe9cLa-132" value="&lt;font style=&quot;font-size: 11px;&quot;&gt;А3.1.3&lt;/font&gt;" style="text;html=1;align=center;verticalAlign=middle;whiteSpace=wrap;rounded=0;" vertex="1" parent="krXHKrjR_23_vHWe9cLa-127">
          <mxGeometry x="13" y="70" width="40" height="20" as="geometry" />
        </mxCell>
        <mxCell id="krXHKrjR_23_vHWe9cLa-133" value="&lt;b&gt;J2&lt;/b&gt;" style="text;html=1;align=center;verticalAlign=middle;whiteSpace=wrap;rounded=0;" vertex="1" parent="1">
          <mxGeometry x="546" y="760" width="33" height="26" as="geometry" />
        </mxCell>
        <mxCell id="krXHKrjR_23_vHWe9cLa-134" value="&lt;div&gt;Книга, доступная для чтения онлайн или скачивания&lt;/div&gt;" style="text;whiteSpace=wrap;html=1;align=center;" vertex="1" parent="1">
          <mxGeometry x="647" y="696" width="189" height="50" as="geometry" />
        </mxCell>
        <mxCell id="krXHKrjR_23_vHWe9cLa-194" style="edgeStyle=orthogonalEdgeStyle;rounded=0;orthogonalLoop=1;jettySize=auto;html=1;" edge="1" parent="1" source="krXHKrjR_23_vHWe9cLa-188" target="xYjexHYlSiZpcQ8cjG75-5">
          <mxGeometry relative="1" as="geometry">
            <Array as="points">
              <mxPoint x="55" y="752" />
              <mxPoint x="55" y="752" />
            </Array>
          </mxGeometry>
        </mxCell>
        <mxCell id="krXHKrjR_23_vHWe9cLa-188" value="&lt;div&gt;Войти в личный кабинет&lt;/div&gt;" style="html=1;whiteSpace=wrap;" vertex="1" parent="1">
          <mxGeometry x="-139" y="709" width="180" height="90" as="geometry" />
        </mxCell>
        <mxCell id="krXHKrjR_23_vHWe9cLa-189" value="" style="endArrow=none;html=1;rounded=0;" edge="1" parent="1">
          <mxGeometry width="50" height="50" relative="1" as="geometry">
            <mxPoint x="-139" y="719" as="sourcePoint" />
            <mxPoint x="-129" y="709" as="targetPoint" />
          </mxGeometry>
        </mxCell>
        <mxCell id="krXHKrjR_23_vHWe9cLa-190" value="&lt;font style=&quot;font-size: 11px;&quot;&gt;А3.1.1&lt;/font&gt;" style="text;html=1;align=center;verticalAlign=middle;whiteSpace=wrap;rounded=0;" vertex="1" parent="1">
          <mxGeometry x="-119" y="779" width="40" height="20" as="geometry" />
        </mxCell>
        <mxCell id="krXHKrjR_23_vHWe9cLa-191" value="" style="endArrow=none;html=1;rounded=0;entryX=0.862;entryY=0.108;entryDx=0;entryDy=0;entryPerimeter=0;" edge="1" parent="1" target="krXHKrjR_23_vHWe9cLa-190">
          <mxGeometry width="50" height="50" relative="1" as="geometry">
            <mxPoint x="-139" y="781" as="sourcePoint" />
            <mxPoint x="-90" y="734" as="targetPoint" />
          </mxGeometry>
        </mxCell>
        <mxCell id="krXHKrjR_23_vHWe9cLa-192" value="" style="endArrow=none;html=1;rounded=0;exitX=0.5;exitY=1;exitDx=0;exitDy=0;" edge="1" parent="1" source="krXHKrjR_23_vHWe9cLa-188">
          <mxGeometry width="50" height="50" relative="1" as="geometry">
            <mxPoint x="-86" y="834" as="sourcePoint" />
            <mxPoint x="-49" y="781" as="targetPoint" />
          </mxGeometry>
        </mxCell>
        <mxCell id="krXHKrjR_23_vHWe9cLa-193" value="" style="endArrow=none;html=1;rounded=0;exitX=0.003;exitY=0.803;exitDx=0;exitDy=0;exitPerimeter=0;entryX=0.998;entryY=0.8;entryDx=0;entryDy=0;entryPerimeter=0;" edge="1" parent="1" source="krXHKrjR_23_vHWe9cLa-188" target="krXHKrjR_23_vHWe9cLa-188">
          <mxGeometry width="50" height="50" relative="1" as="geometry">
            <mxPoint x="-110" y="769" as="sourcePoint" />
            <mxPoint x="-60" y="719" as="targetPoint" />
          </mxGeometry>
        </mxCell>
        <mxCell id="krXHKrjR_23_vHWe9cLa-202" style="edgeStyle=orthogonalEdgeStyle;rounded=0;orthogonalLoop=1;jettySize=auto;html=1;" edge="1" parent="1" source="krXHKrjR_23_vHWe9cLa-196" target="krXHKrjR_23_vHWe9cLa-36">
          <mxGeometry relative="1" as="geometry">
            <Array as="points">
              <mxPoint x="58" y="392" />
              <mxPoint x="58" y="392" />
            </Array>
          </mxGeometry>
        </mxCell>
        <mxCell id="krXHKrjR_23_vHWe9cLa-196" value="&lt;div&gt;Войти в личный кабинет&lt;/div&gt;" style="html=1;whiteSpace=wrap;" vertex="1" parent="1">
          <mxGeometry x="-132" y="349" width="180" height="90" as="geometry" />
        </mxCell>
        <mxCell id="krXHKrjR_23_vHWe9cLa-197" value="" style="endArrow=none;html=1;rounded=0;" edge="1" parent="1">
          <mxGeometry width="50" height="50" relative="1" as="geometry">
            <mxPoint x="-132" y="359" as="sourcePoint" />
            <mxPoint x="-122" y="349" as="targetPoint" />
          </mxGeometry>
        </mxCell>
        <mxCell id="krXHKrjR_23_vHWe9cLa-198" value="&lt;font style=&quot;font-size: 11px;&quot;&gt;А2.1.1&lt;/font&gt;" style="text;html=1;align=center;verticalAlign=middle;whiteSpace=wrap;rounded=0;" vertex="1" parent="1">
          <mxGeometry x="-112" y="419" width="40" height="20" as="geometry" />
        </mxCell>
        <mxCell id="krXHKrjR_23_vHWe9cLa-199" value="" style="endArrow=none;html=1;rounded=0;entryX=0.862;entryY=0.108;entryDx=0;entryDy=0;entryPerimeter=0;" edge="1" parent="1" target="krXHKrjR_23_vHWe9cLa-198">
          <mxGeometry width="50" height="50" relative="1" as="geometry">
            <mxPoint x="-132" y="421" as="sourcePoint" />
            <mxPoint x="-83" y="374" as="targetPoint" />
          </mxGeometry>
        </mxCell>
        <mxCell id="krXHKrjR_23_vHWe9cLa-200" value="" style="endArrow=none;html=1;rounded=0;exitX=0.5;exitY=1;exitDx=0;exitDy=0;" edge="1" parent="1" source="krXHKrjR_23_vHWe9cLa-196">
          <mxGeometry width="50" height="50" relative="1" as="geometry">
            <mxPoint x="-79" y="474" as="sourcePoint" />
            <mxPoint x="-42" y="421" as="targetPoint" />
          </mxGeometry>
        </mxCell>
        <mxCell id="krXHKrjR_23_vHWe9cLa-201" value="" style="endArrow=none;html=1;rounded=0;exitX=0.003;exitY=0.803;exitDx=0;exitDy=0;exitPerimeter=0;entryX=0.998;entryY=0.8;entryDx=0;entryDy=0;entryPerimeter=0;" edge="1" parent="1" source="krXHKrjR_23_vHWe9cLa-196" target="krXHKrjR_23_vHWe9cLa-196">
          <mxGeometry width="50" height="50" relative="1" as="geometry">
            <mxPoint x="-103" y="409" as="sourcePoint" />
            <mxPoint x="-53" y="359" as="targetPoint" />
          </mxGeometry>
        </mxCell>
        <mxCell id="krXHKrjR_23_vHWe9cLa-210" style="edgeStyle=orthogonalEdgeStyle;rounded=0;orthogonalLoop=1;jettySize=auto;html=1;" edge="1" parent="1" source="krXHKrjR_23_vHWe9cLa-203" target="krXHKrjR_23_vHWe9cLa-8">
          <mxGeometry relative="1" as="geometry" />
        </mxCell>
        <mxCell id="krXHKrjR_23_vHWe9cLa-203" value="&lt;div&gt;Войти в личный кабинет&lt;/div&gt;" style="html=1;whiteSpace=wrap;" vertex="1" parent="1">
          <mxGeometry x="-132.48" y="-127" width="180" height="90" as="geometry" />
        </mxCell>
        <mxCell id="krXHKrjR_23_vHWe9cLa-204" value="" style="endArrow=none;html=1;rounded=0;" edge="1" parent="1">
          <mxGeometry width="50" height="50" relative="1" as="geometry">
            <mxPoint x="-132.48" y="-117" as="sourcePoint" />
            <mxPoint x="-122.48" y="-127" as="targetPoint" />
          </mxGeometry>
        </mxCell>
        <mxCell id="krXHKrjR_23_vHWe9cLa-205" value="&lt;font style=&quot;font-size: 11px;&quot;&gt;А1.1.1&lt;/font&gt;" style="text;html=1;align=center;verticalAlign=middle;whiteSpace=wrap;rounded=0;" vertex="1" parent="1">
          <mxGeometry x="-112.48" y="-57" width="40" height="20" as="geometry" />
        </mxCell>
        <mxCell id="krXHKrjR_23_vHWe9cLa-206" value="" style="endArrow=none;html=1;rounded=0;entryX=0.862;entryY=0.108;entryDx=0;entryDy=0;entryPerimeter=0;" edge="1" parent="1" target="krXHKrjR_23_vHWe9cLa-205">
          <mxGeometry width="50" height="50" relative="1" as="geometry">
            <mxPoint x="-132.48" y="-55" as="sourcePoint" />
            <mxPoint x="-83.48" y="-102" as="targetPoint" />
          </mxGeometry>
        </mxCell>
        <mxCell id="krXHKrjR_23_vHWe9cLa-207" value="" style="endArrow=none;html=1;rounded=0;exitX=0.5;exitY=1;exitDx=0;exitDy=0;" edge="1" parent="1" source="krXHKrjR_23_vHWe9cLa-203">
          <mxGeometry width="50" height="50" relative="1" as="geometry">
            <mxPoint x="-79.48" y="-2" as="sourcePoint" />
            <mxPoint x="-42.480000000000004" y="-55" as="targetPoint" />
          </mxGeometry>
        </mxCell>
        <mxCell id="krXHKrjR_23_vHWe9cLa-208" value="" style="endArrow=none;html=1;rounded=0;exitX=0.003;exitY=0.803;exitDx=0;exitDy=0;exitPerimeter=0;entryX=0.998;entryY=0.8;entryDx=0;entryDy=0;entryPerimeter=0;" edge="1" parent="1" source="krXHKrjR_23_vHWe9cLa-203" target="krXHKrjR_23_vHWe9cLa-203">
          <mxGeometry width="50" height="50" relative="1" as="geometry">
            <mxPoint x="-103.48" y="-67" as="sourcePoint" />
            <mxPoint x="-53.480000000000004" y="-117" as="targetPoint" />
          </mxGeometry>
        </mxCell>
        <mxCell id="krXHKrjR_23_vHWe9cLa-211" value="Пользователь" style="html=1;whiteSpace=wrap;" vertex="1" parent="1">
          <mxGeometry x="-139" y="1035" width="180" height="90" as="geometry" />
        </mxCell>
        <mxCell id="krXHKrjR_23_vHWe9cLa-212" value="" style="endArrow=none;html=1;rounded=0;" edge="1" parent="1">
          <mxGeometry width="50" height="50" relative="1" as="geometry">
            <mxPoint x="-139" y="1045" as="sourcePoint" />
            <mxPoint x="-129" y="1035" as="targetPoint" />
          </mxGeometry>
        </mxCell>
        <mxCell id="krXHKrjR_23_vHWe9cLa-213" value="" style="endArrow=none;html=1;rounded=0;entryX=0.862;entryY=0.108;entryDx=0;entryDy=0;entryPerimeter=0;" edge="1" parent="1">
          <mxGeometry width="50" height="50" relative="1" as="geometry">
            <mxPoint x="-139" y="1107" as="sourcePoint" />
            <mxPoint x="41.48000000000002" y="1107.16" as="targetPoint" />
          </mxGeometry>
        </mxCell>
        <mxCell id="krXHKrjR_23_vHWe9cLa-214" style="edgeStyle=orthogonalEdgeStyle;rounded=0;orthogonalLoop=1;jettySize=auto;html=1;" edge="1" parent="1" source="krXHKrjR_23_vHWe9cLa-215">
          <mxGeometry relative="1" as="geometry">
            <mxPoint x="601" y="1226" as="targetPoint" />
          </mxGeometry>
        </mxCell>
        <mxCell id="krXHKrjR_23_vHWe9cLa-215" value="Прочитать книгу" style="html=1;whiteSpace=wrap;" vertex="1" parent="1">
          <mxGeometry x="308" y="1181" width="180" height="90" as="geometry" />
        </mxCell>
        <mxCell id="krXHKrjR_23_vHWe9cLa-216" value="" style="endArrow=none;html=1;rounded=0;" edge="1" parent="1">
          <mxGeometry width="50" height="50" relative="1" as="geometry">
            <mxPoint x="308" y="1191" as="sourcePoint" />
            <mxPoint x="318" y="1181" as="targetPoint" />
          </mxGeometry>
        </mxCell>
        <mxCell id="krXHKrjR_23_vHWe9cLa-217" value="&lt;font style=&quot;font-size: 11px;&quot;&gt;А4.1.3&lt;/font&gt;" style="text;html=1;align=center;verticalAlign=middle;whiteSpace=wrap;rounded=0;" vertex="1" parent="1">
          <mxGeometry x="328" y="1251" width="40" height="20" as="geometry" />
        </mxCell>
        <mxCell id="krXHKrjR_23_vHWe9cLa-218" value="" style="endArrow=none;html=1;rounded=0;entryX=0.862;entryY=0.108;entryDx=0;entryDy=0;entryPerimeter=0;" edge="1" parent="1" target="krXHKrjR_23_vHWe9cLa-217">
          <mxGeometry width="50" height="50" relative="1" as="geometry">
            <mxPoint x="308" y="1253" as="sourcePoint" />
            <mxPoint x="357" y="1206" as="targetPoint" />
          </mxGeometry>
        </mxCell>
        <mxCell id="krXHKrjR_23_vHWe9cLa-219" value="" style="endArrow=none;html=1;rounded=0;exitX=0.5;exitY=1;exitDx=0;exitDy=0;" edge="1" parent="1" source="krXHKrjR_23_vHWe9cLa-215">
          <mxGeometry width="50" height="50" relative="1" as="geometry">
            <mxPoint x="361" y="1306" as="sourcePoint" />
            <mxPoint x="398" y="1253" as="targetPoint" />
          </mxGeometry>
        </mxCell>
        <mxCell id="krXHKrjR_23_vHWe9cLa-220" value="" style="endArrow=none;dashed=1;html=1;rounded=0;entryX=0.524;entryY=0.999;entryDx=0;entryDy=0;entryPerimeter=0;exitX=0.524;exitY=-0.018;exitDx=0;exitDy=0;exitPerimeter=0;" edge="1" parent="1">
          <mxGeometry width="50" height="50" relative="1" as="geometry">
            <mxPoint x="-48.80999999999983" y="1178.47" as="sourcePoint" />
            <mxPoint x="-48.80999999999983" y="1126" as="targetPoint" />
          </mxGeometry>
        </mxCell>
        <mxCell id="krXHKrjR_23_vHWe9cLa-221" value="" style="endArrow=none;html=1;rounded=0;exitX=0.003;exitY=0.803;exitDx=0;exitDy=0;exitPerimeter=0;entryX=0.998;entryY=0.8;entryDx=0;entryDy=0;entryPerimeter=0;" edge="1" parent="1" source="krXHKrjR_23_vHWe9cLa-215" target="krXHKrjR_23_vHWe9cLa-215">
          <mxGeometry width="50" height="50" relative="1" as="geometry">
            <mxPoint x="337" y="1241" as="sourcePoint" />
            <mxPoint x="387" y="1191" as="targetPoint" />
          </mxGeometry>
        </mxCell>
        <mxCell id="krXHKrjR_23_vHWe9cLa-222" value="&lt;font style=&quot;font-size: 32px;&quot;&gt;4 блок&lt;/font&gt;" style="text;html=1;align=center;verticalAlign=middle;whiteSpace=wrap;rounded=0;" vertex="1" parent="1">
          <mxGeometry x="-139" y="993" width="120" height="30" as="geometry" />
        </mxCell>
        <mxCell id="krXHKrjR_23_vHWe9cLa-223" value="&lt;div&gt;Сохранение состояния о прочитанной книге&lt;/div&gt;" style="text;whiteSpace=wrap;html=1;align=center;" vertex="1" parent="1">
          <mxGeometry x="491" y="1183" width="189" height="50" as="geometry" />
        </mxCell>
        <mxCell id="krXHKrjR_23_vHWe9cLa-224" style="edgeStyle=orthogonalEdgeStyle;rounded=0;orthogonalLoop=1;jettySize=auto;html=1;" edge="1" parent="1" source="krXHKrjR_23_vHWe9cLa-225" target="krXHKrjR_23_vHWe9cLa-215">
          <mxGeometry relative="1" as="geometry">
            <Array as="points">
              <mxPoint x="278" y="1226" />
              <mxPoint x="278" y="1226" />
            </Array>
          </mxGeometry>
        </mxCell>
        <mxCell id="krXHKrjR_23_vHWe9cLa-225" value="Выбрать книгу на странице,&amp;nbsp;&lt;span style=&quot;background-color: initial;&quot;&gt;доступная для чтения или скачивания&lt;/span&gt;" style="html=1;whiteSpace=wrap;" vertex="1" parent="1">
          <mxGeometry x="88.00000000000003" y="1183" width="180" height="90" as="geometry" />
        </mxCell>
        <mxCell id="krXHKrjR_23_vHWe9cLa-226" value="" style="endArrow=none;html=1;rounded=0;" edge="1" parent="1">
          <mxGeometry width="50" height="50" relative="1" as="geometry">
            <mxPoint x="88.00000000000003" y="1193" as="sourcePoint" />
            <mxPoint x="98.00000000000003" y="1183" as="targetPoint" />
          </mxGeometry>
        </mxCell>
        <mxCell id="krXHKrjR_23_vHWe9cLa-227" value="&lt;font style=&quot;font-size: 11px;&quot;&gt;А4.1.2&lt;/font&gt;" style="text;html=1;align=center;verticalAlign=middle;whiteSpace=wrap;rounded=0;" vertex="1" parent="1">
          <mxGeometry x="108.00000000000003" y="1253" width="40" height="20" as="geometry" />
        </mxCell>
        <mxCell id="krXHKrjR_23_vHWe9cLa-228" value="" style="endArrow=none;html=1;rounded=0;entryX=0.862;entryY=0.108;entryDx=0;entryDy=0;entryPerimeter=0;" edge="1" parent="1" target="krXHKrjR_23_vHWe9cLa-227">
          <mxGeometry width="50" height="50" relative="1" as="geometry">
            <mxPoint x="88.00000000000003" y="1255" as="sourcePoint" />
            <mxPoint x="137.00000000000003" y="1208" as="targetPoint" />
          </mxGeometry>
        </mxCell>
        <mxCell id="krXHKrjR_23_vHWe9cLa-229" value="" style="endArrow=none;html=1;rounded=0;exitX=0.5;exitY=1;exitDx=0;exitDy=0;" edge="1" parent="1" source="krXHKrjR_23_vHWe9cLa-225">
          <mxGeometry width="50" height="50" relative="1" as="geometry">
            <mxPoint x="141.00000000000003" y="1308" as="sourcePoint" />
            <mxPoint x="178.00000000000003" y="1255" as="targetPoint" />
          </mxGeometry>
        </mxCell>
        <mxCell id="krXHKrjR_23_vHWe9cLa-230" value="" style="endArrow=none;html=1;rounded=0;exitX=0.003;exitY=0.803;exitDx=0;exitDy=0;exitPerimeter=0;entryX=0.998;entryY=0.8;entryDx=0;entryDy=0;entryPerimeter=0;" edge="1" parent="1" source="krXHKrjR_23_vHWe9cLa-225" target="krXHKrjR_23_vHWe9cLa-225">
          <mxGeometry width="50" height="50" relative="1" as="geometry">
            <mxPoint x="117.00000000000003" y="1243" as="sourcePoint" />
            <mxPoint x="167.00000000000003" y="1193" as="targetPoint" />
          </mxGeometry>
        </mxCell>
        <mxCell id="krXHKrjR_23_vHWe9cLa-245" style="edgeStyle=orthogonalEdgeStyle;rounded=0;orthogonalLoop=1;jettySize=auto;html=1;" edge="1" parent="1" source="krXHKrjR_23_vHWe9cLa-238" target="krXHKrjR_23_vHWe9cLa-225">
          <mxGeometry relative="1" as="geometry" />
        </mxCell>
        <mxCell id="krXHKrjR_23_vHWe9cLa-238" value="Войти в личный кабинет" style="html=1;whiteSpace=wrap;" vertex="1" parent="1">
          <mxGeometry x="-138.99999999999997" y="1183" width="180" height="90" as="geometry" />
        </mxCell>
        <mxCell id="krXHKrjR_23_vHWe9cLa-239" value="" style="endArrow=none;html=1;rounded=0;" edge="1" parent="1">
          <mxGeometry width="50" height="50" relative="1" as="geometry">
            <mxPoint x="-138.99999999999997" y="1193" as="sourcePoint" />
            <mxPoint x="-128.99999999999997" y="1183" as="targetPoint" />
          </mxGeometry>
        </mxCell>
        <mxCell id="krXHKrjR_23_vHWe9cLa-240" value="&lt;font style=&quot;font-size: 11px;&quot;&gt;А4.1.1&lt;/font&gt;" style="text;html=1;align=center;verticalAlign=middle;whiteSpace=wrap;rounded=0;" vertex="1" parent="1">
          <mxGeometry x="-118.99999999999997" y="1253" width="40" height="20" as="geometry" />
        </mxCell>
        <mxCell id="krXHKrjR_23_vHWe9cLa-241" value="" style="endArrow=none;html=1;rounded=0;entryX=0.862;entryY=0.108;entryDx=0;entryDy=0;entryPerimeter=0;" edge="1" parent="1" target="krXHKrjR_23_vHWe9cLa-240">
          <mxGeometry width="50" height="50" relative="1" as="geometry">
            <mxPoint x="-138.99999999999997" y="1255" as="sourcePoint" />
            <mxPoint x="-89.99999999999997" y="1208" as="targetPoint" />
          </mxGeometry>
        </mxCell>
        <mxCell id="krXHKrjR_23_vHWe9cLa-242" value="" style="endArrow=none;html=1;rounded=0;exitX=0.5;exitY=1;exitDx=0;exitDy=0;" edge="1" parent="1" source="krXHKrjR_23_vHWe9cLa-238">
          <mxGeometry width="50" height="50" relative="1" as="geometry">
            <mxPoint x="-85.99999999999997" y="1308" as="sourcePoint" />
            <mxPoint x="-48.99999999999997" y="1255" as="targetPoint" />
          </mxGeometry>
        </mxCell>
        <mxCell id="krXHKrjR_23_vHWe9cLa-243" value="" style="endArrow=none;html=1;rounded=0;exitX=0.003;exitY=0.803;exitDx=0;exitDy=0;exitPerimeter=0;entryX=0.998;entryY=0.8;entryDx=0;entryDy=0;entryPerimeter=0;" edge="1" parent="1" source="krXHKrjR_23_vHWe9cLa-238" target="krXHKrjR_23_vHWe9cLa-238">
          <mxGeometry width="50" height="50" relative="1" as="geometry">
            <mxPoint x="-109.99999999999997" y="1243" as="sourcePoint" />
            <mxPoint x="-59.99999999999997" y="1193" as="targetPoint" />
          </mxGeometry>
        </mxCell>
      </root>
    </mxGraphModel>
  </diagram>
</mxfile>
